/* XPM */
static char *collectible[] = {
/* columns rows colors chars-per-pixel */
"80 80 48 1 ",
"  c #0A0D10",
". c #18191A",
"X c #1E1F20",
"o c #231F21",
"O c #1F2020",
"+ c #262525",
"@ c #322D2C",
"# c #37302F",
"$ c #3B3332",
"% c #483B3A",
"& c #4D403E",
"* c #51413F",
"= c #4D4642",
"- c #584744",
"; c #5C514C",
": c #5E5850",
"> c #644E4A",
", c #67524C",
"< c #6B5852",
"1 c #775C55",
"2 c #6C635A",
"3 c #75655C",
"4 c #7A6B62",
"5 c #7E7368",
"6 c #816A5F",
"7 c #846D61",
"8 c #85766B",
"9 c #967C6D",
"0 c #8B7D71",
"q c #907F73",
"w c #8D8174",
"e c #978779",
"r c #A68B79",
"t c #AC917E",
"y c #9D8F80",
"u c #9F9181",
"i c #A18F81",
"p c #A89787",
"a c #B49A86",
"s c #AFA08E",
"d c #B4A18E",
"f c #B7A694",
"g c #C0A58F",
"h c #C2AC97",
"j c #C7B29D",
"k c #CBB8A3",
"l c #D2BDA7",
"z c #D7C2AB",
/* pixels */
"+++OO+OXOXXO++@$$%$$@oooooXXXXOOOOOOOX+@#%%%%%%%%&%%%$#@oo+@#$%$$@ooooooooooXXXX",
"+.O+OOO+OOO+O+@#%$%##++oooooo++XO+OO+++@#$%%%%%%%%%%%$#@@+o@#%%%$@oooooooooooooX",
"O++O++O+++++++#$%%%$@++o+++++++++++++++##%%%%&%%%%*%%$#@+o@@$$$%$#@ooooo++o+o+oo",
"+OO+++++++++@@#$$%%$#@@o++++++++++++++@#$$%%%%%%%%%%%%$@@@@@#%%$$#@o@o@++++@@@@@",
".+O+++@@@@@@@##%%$%$$@@@@@@@@@@@@@@@@@@$%%%%&%%%%**%%%$#@@@#%%%%$###@@@####$$%%%",
"OO+++@#######$$$%%%$$$$$###########$#$$$$%%%%%%&%%%%%%%$$$$$$%%%%$$#####$$%%&*-*",
"OO++@@#$%$$$%$%%%%%$%%%$$$%$$$%$$%$$$$%%%%%%%%%%%%%%%%%$%%$%%%%$$%%#$%%$%%*-->,,",
"++++@#$%%%%%%%%%%%%%%%%%%%%%%%%%%%%%%%%%%%%%%%%%%%%%%%%%%%%%%%%%%%%%%%%%%%-><<11",
"+++@##%%%%%%%%%%%%%%%%%%%%%%%%%%%%%%%%*%%%%%%%%%%%%%%%%%%%%%%%%%%*%%%%%%%*>>1111",
"@@@##%%%%%%%*%%%%%%&%%%%%*%%*%%*%%%%%%%%%%%%%%%%%%%%%%%%%%%%%%%%%%%%%%%%%*>>1111",
"###$%%%%%%=%%%*%%%%%%%%&%%*%%%%%%&%%%&%%%%&%&%%%%%%%%%*%%%%%%%*%%%%%*%%%%*>>1111",
"%%$%#%%%%%%%%%%%%%&%%&%%*%%%%%%%%%%%%%%%%%%%%%%%%%%%%*%%%%%%%%%%%%%%%%%%**>>1111",
"%%%%%%%%%%%%%%*%%%%%%%%%%%%%%*%%%%%%&%%*%%%%%%%%%%*%%%%%%%%%%%%%%%%%%%%%%*>>1111",
"%%%%%%%%%*%%%%%%%%%%%%%%%%%%%%%%%%%%%%%%%%%%%%%%%%%%%%%%%%%%%%%%%%%%%%%%**>>,111",
"%%%%%%%%%%%%%%%%%%%%%%*%%%%%%%%%%%%%%%%%*%%%%%%%%%%%%%%%%%%%%%%%%%%%%%%%%**>,111",
"*%%%%*%%%%%%%%%%%&%%%%%%%%%%%%%%%%%%%%%%%%%%%%&%%%%%%%%%*%%%%%%*%%%%%%%%%*>>1111",
"%%%%%%%%%%%%%%&%%%*%%%%%%%%%%%%%%%%%%%%%%%%%%%%%%%%%%%%%%%%%%%%%%%%%%%%%%*->1111",
"%%%%%%%%%%%&%%%%%%%%%%%%%%%%%%%%%%%%%*%%%%%%%%%%%%%%%%%%%%%%%%%%%%%%%%%%%*>>,111",
"%%%%%%%%%%&%%%%%%%%%%%%%%%%%%%%%%*%%%%%%%%%%*%%%%%%*%*%%%%%%%*%%%%%%%%%%%*->1111",
"@#@###%%%%%%%%%%%%%%%%%%%%%%%*%%%%%%%%%%%%%%%%%%%%%%%%%%%%%*%%%%%%%%%%%%%*>>1111",
"@@@@#%%%&%%%%%%%%%%%%%%%%%%%%%%%%%%%%%%%%%%%%%%%%%%%%%%%%%%%%%%%%%%%%%%%%**>1111",
"o++@###%%%%%&%%%%%%**%%%%%%%%%%%%%%%%%%%*%%%%%%%%%%%%*%%%%%%%%%%%%%%%%%%**>>>111",
"+++@##%%%%%%%%%%%%%%%%%%%%%%%%%%%%%%%%%%%%%%%%%%%%%%%%%%%%%%%%%%%%%%%%%%%*>>,111",
"+++@###%%&%%%%%%%%%%%%%%%%%%%%%%%%%%%%%%%%%%%%%%%%%%%%%%%%%&%%%%%%%%%%%%%*>>1111",
"@@@@#$%%%%%%%&%%%%%%%*%%%%%%%%%%%%%%%%%$%%%%%%%$%%%%%%%%&%%%*%%%*%%%%%%%**>>1111",
"$$#$#%%%%%%%%%%%%%*%%%%%%%%%%%%$%$$%$%%%$%%$%$%%%%%%%%%%%%%%%%%%%%%%%%%%%*->1111",
"%$%%$%%%%%%%%%%%%%%%%%%%%*%%%%%%%%%%%%%%%%%%%%%%%%%%%%%%%%%%%%%%%%%%%%%%%*->,111",
"%$%%%%%%%%%%%%%%%%%%%%%%%%%%&%&***%*%%*%*%**&&%&%%*%%%%%%%%%%%%%%%%%%%%%**>>>111",
"#%%%%%%%%%%%%%%%%%%%%%%%%%%%%*-;;,>>>->-->---->--**&%%%%%%%%%%%%%%%%%%%%%**>>>11",
"##$$$#%%%%%%%%%%%%%%%%%%%%%%*><344411<<<,1<111<<,>-&%%%$%%%%%&%%%%%%%%%%%**->>>>",
"@#@$#%%%%%%%%%*%%%%%%%%%%%#%*,40eeq97776777777761<-*%%%%%%*%%%%%*%%%%%%%%%****>*",
"o++@#$$%%%*%%%%%%%*%%%%%%#%%>30isdairq9999999q9q83,-%%$%%%%%%%%%%%%%%%%%%%******",
"o+++@#$%%%%%%%%%%%%%%%%%%%&-25yfhjhdttrrrrrrtrr9976>*%%%%%%%%%%%%%%%%%%*%%*%*%**",
"ooo@@#%%%*%%%%%%%%%%%%&&=-;24wpfklkhgaaaaaaaata9996,>-**%%%%%%%%%%%%%%%%%%%*****",
"ooo+@#$%%%%%%%%*%%%%%%&*;245wpfklllkjggghggggatt9966,,>**%%%%%%%%%%*%%%%%%****>-",
"XXoo@#$%%**%%%%%%%%%%%*-24wusfkklzllljkkjjjhgaatr99766,>-%%%%%%%%%%%%%%%%**>>>>>",
"Xoo@@#$%%*%%%%%%%%%%%%%;2qifjkklllllllklkkkjhaair99r976>-%%%%%%%%%%%%%%%**->>,>1",
"Xoo+@#%%%%%%%%%%%%%$$%*;3qpfkkkllllkjjjjkkjhgaaptttt996,-%%%%%%%%%%%%%%%%**>>111",
"X+++@#%%%%%%%%%%%%%%%%*;28isfkkklkjhffaassdsaappaattr971-%%%%%%%%%%%%%%%%**>>,11",
"XX++@#$%%%*%%%%*%%%%%%&-:48qusfkkkhpieqqqqqeiasfgaatr976>*%%%%%%%%%%%%%%%**>>>>>",
"XX++@#$%%%%%%%%%%%%%%%%*=::25ysjkhse522:::25wysfgggar96<-%%%%%%%%*%%%%%%%***>**>",
"XX++@#$%%%*%%%%%%%%%%%%%$%==25ufjfu5:==$%==:5ysfjggtrw7<>*%%%%%%%%%%%%%%%%%*%***",
"++++@$%%%*%%%%%%%%%%%%%%#@@#=2yfjfy2=@++X+#=2wsfljgat961>*%%%%%%%%%%%%%%%%%**%%*",
"++@@#$$%%%%%%%%%%%%%%%%$@+X@%2wffse2=+X .XO=2wsklljgtr81-%%%%%%%%%%%%%%%%%%*****",
"@@@@$$%%%%%%%%%%%*%%%%%$@XXO%:wfjfe2$O.  .X$:wsklzlgdt93>%%#%%%%%%%%%%%%%%***>*>",
"##$#$%%%%%*%%%%%%%%%%%%$@X.+$2efjfe2%+.  .X$:wskzzzlhaw3>%%%#%%%%%%%%%%%***>>>>>",
"$%$%%$%%%%%%%%%%%%%%%%%$@+O+=2esffe2%+.. X+=2wskzzzljde3>*%%%%%%%%%%%%%%%**>>,11",
"%%%%%%%%%%%*%%%%%%%%%%%%$@@#=2wsfsw2=#+O++#=2wfkzzllhae6,*%#%%%%%%%%%%%%***>,111",
"%%%%%%%%%%%%&%%%%%%%%%%%%%%=:2wyuyw2:==$$==:5ufklljhsy52:=%%%%%%%%%%%%%%%*>>,111",
"%%%%%%&%%%%%%%%%%%%%%%%&-;::2550ww5522:2:255yskklgdtw52:=&%$%%%%%%%%%%%%%*>>1111",
"&%&&&%%%%%%%&%%%%%%%%%%-:250554222255wwwwwyysjklffe82:===&&%%%%%%%%%%%%%**>>1111",
"%&%%%%%%%%%%%%%%%%%%$%*>40ypy02;=:25yssfffffkkkkfe5<==%=&$%%%%%%%%%%%%%%%*->1111",
"%%%%%%%%%%%&%%%%%%%%%%*:5iffs02=$=:wsfkkkjfjkkkjfw2=@@@$%%%&%%%%%%%%%%%%%*->,111",
"$$%$%$%%%%%%%%%%%%%$$%*:8ifjfq2&$=2wfkllkffssfspe4:$+O+@$%%%%%%%%%%*%%%%%**>>,>1",
"$#$$$%%%%%%%%%%%%%%%%%*<8pjkfy2===2wfllkfpywwwww4:%@+++@$%%%%%%%%%%%%%%%***>>>>>",
"@@@#$$$%&%%%%%&%%%%%$%=<8phkfi4=$=2yfkkfy52222::;=@+OO@@$%%&%%%%%%%%%%%%%%**->*>",
"++o@#$$%%%%%%%%%%%%$%%*<8ifkfy4;=:4yskfu82=%%%=%%#@+++@#%%%%%%%%%%*%%%%%%*%%****",
"+++@@#%%%%&%%%%%%%%%$%*,7iffde4;=:4ysfsy2=#@++@@++++++@#$%%%%%%%%%%%%%%%%%%%%%%%",
"ooo@@#$%%%%%%%*%%%%%%%*>3qisi02;=:2wppy5:%@+OO++++++@@@#%%%%%%%%%%%%%%%%%%%%%%%%",
"Xooo@#$%%&%%%%%%%%%%$%%-<5qqq4<;=::50w02;%@+++++@@+@@@#%$%%%=%%%%%%%%%%%%%%%%%%%",
"XXo+@#%%%%*%%%%%%%%%%%&*;<343<;*&-;244<<-%@#@+@@@@####%#%%%%%%%%%%%%%%%%%%%%%%%%",
"Xo++@#$%%%%%%%%%&%%%%%%&-;;;;;-&%&=-;;;-%%$$%%$#$%%$%%%%%%*%%%%%%%%%%%%%%%%%%%%%",
"Xo++@#%%%*%%%*%%%%%%%%%&%&*&&%&%%&%&&&&&%%%%%%%%%%%%%%%%%%%%%%%%%%%%%%%%%%%%*%%%",
"Xo++@#$%%%%%%%%%%%%%%%%%%%%%%%%%%%%%%%%%%%%%%%%%%%%%%%%%%%%%%%%%*%%%%%%%%*%****%",
"+X++@$$%%*%%%%%%%%%%%%%%%%$%$%%%%%%%%$$%%%%%%%%%%%%%%%%%%%%%%%%%%%%%%%%%%%***>>>",
"X+X@@$$%%%%%%%%%%%%%%%%%%%%%%%%%%%%%%%%%%%%%%%%%*%*%%*%%%%%%%%%%%%*%%%%%%**>>>>>",
"X+++@$%%%%%%%*%%%%%%%%%%%%%%%%%%%%%%%%%%%%%%%%%%%%%%%%%%%%%%%%*%%%%%%%%%%**>>>1,",
"XX++@#$%%*%%%%%%%%*%*%%%%%%%%%%%%%%%%%%%%%%%%%%%%%%%%*%%%%%%%%%%%%%%%%%%%*>>>111",
"X+++@#$%%%%%%%%%%%%%*%%%%%%%%%%%%%%%%%%%%%%%%%%%%%%%%%%%%%%%%%%%%%%%%%%%%->>1111",
"XXX++#$%%%%%%%%%%%%%%%%%%%%%%%%%%%%%%%%%%%%%%%%%%%%%%%%%%%%%%%%%%%%%%%%%%*->1111",
"XX++@#%%%%%%%%%%%%%%%%%%%%%$%%%%%%%%%%%%%%%%%%%%%%%%%%%%%%%%%%%%%%%%%$%%%*>>1111",
"XoXX@@$%%%%%%%%%%%%%%%%%%%%%%%%%%%%%%%%%%%%%%%%%%%%%%%%%%%%%%%%%%%%%%%%%%*->,111",
"+++@#$%%%**%%%%%%%%%%%%%%%%%%%%%%%*%%**%*%*%%*%%%%%%%%%%%%%%%%%*%%%%%%%***>>1111",
"@@@#$%%********%%%%%%%*%%*****%*%%%********************%%*%*****%********->>,111",
"%%%%***--->-*-***%%%%%%%*----***%****->-->>->-->->>---***%%**-*>->>->-->>>>11111",
"&-=;->>>,,,>>>>**%%%%%%**->>>-**%**->>>>>>>>>>>>>>>>>>-**%**->>>>>>>>>>>>,,,1111",
";,,,,,,11111,>>**%%%%%%**>,,>>**%**>>,11,,1,11,,1,111>--*%**>>,11,111,1,,1111111",
"1<11111111111,>-*%%%%%%*->1,,>-*%*->,1111111111111111,>-***->,111111111111111111",
"1111111111111,>-*%%%%%%*>>,11>-***>>111611111111111111>-*%*->,111111111111111111",
"31611116111111>>*%%%%%%*>>11,>>***->,1111111111111111,>-***->1111111111111111111"
};
