/* XPM */
static char *exit[] = {
/* columns rows colors chars-per-pixel */
"80 80 58 1 ",
"  c #1C1F1F",
". c #1D1F20",
"X c #371F25",
"o c #1E2021",
"O c #262424",
"+ c #352927",
"@ c #38302E",
"# c #3B3332",
"$ c #461F28",
"% c #462B25",
"& c #56262B",
"* c #483226",
"= c #583524",
"- c #462E30",
"; c #5A2B33",
": c #473B3A",
"> c #563B39",
", c #652B2B",
"< c #653725",
"1 c #7A3A28",
"2 c #642B34",
"3 c #6A383D",
"4 c #4F403E",
"5 c #53413D",
"6 c #6B422B",
"7 c #774326",
"8 c #694739",
"9 c #744934",
"0 c #7A513E",
"q c #6A3F41",
"w c #4E4141",
"e c #584643",
"r c #644D49",
"t c #724747",
"y c #68524C",
"u c #75534B",
"i c #6E5650",
"p c #765B54",
"a c #7C6058",
"s c #843D28",
"d c #874824",
"f c #974C26",
"g c #9A532A",
"h c #824E34",
"j c #895236",
"k c #965A3B",
"l c #A75525",
"z c #B65C28",
"x c #A65C34",
"c c #BA612E",
"v c #AD6139",
"b c #B26236",
"n c #875C4A",
"m c #985E42",
"M c #825F52",
"N c #8C604D",
"B c #9C6144",
"V c #846052",
/* pixels */
"OoOoooooooooOO###::#@ooooooo.O..Oo..ooO@##::::w:::w::##OOOO@@#:#@@oooooooooooo.o",
"OooOOoOoOoooOO@##:##@OOooooO..O.OoooOOo@##:ww:::::::w##+OOOO##::@@OoOooooOoooooo",
"ooOooOOoOOOOOO@##::#@OOoooOO.OOOOOOOooO####w::::w:w::#@@@OO@###:#@OOOOoOooOOooOO",
"OOoOOOOOOOOO@O@#::##@O@OO@OO@OOOOOOOO@O@#::::::::::::#@@@O@@#::##@@OOO@o@@O@@@@@",
".ooOOOO@O@O@@@@#::###@O@@@O@@OO@@O@O#@@@#::::w:::::::###@@###::###@@@O@@@@@@#::#",
" OOOO@@@###@@##:#:::###@@@###############::::::::::::w:#####:::::##@@@@@@@:w4w5e",
"..OOO@@##:#:##:::::::##:###############::::::::::w#:::####:#::::#::######:weeyyy",
"OOOO@##::::::::::::::w:#::w:::w::w::w::::::::::w::w:::w::w#:::::::::::::wweeiiip",
"OOOO@##::::::::::::::::w:::::::::::::::::::w:::::w::::::::::::::4:::::::44eyipap",
"@@#@##:::ww::w::::w::::::4::::4::w:::ww::::::::::::::::::::w::w:::::4:::4eeyipaa",
"@@@##::::w:::::w::::w::::4:4:4::::w:::::::::::::::::w:::w:::::::::4::::::4yyipaa",
":#:#:::::::::::::::::::w:::::::::::::::w::::::w:::::::::::::::::::::::::44eyipap",
":::::::::w::::::::w:::::::::::::::::::::::::::::::::::::::::::::::::::::44eyiiaa",
":::::w:::::::::w:::::::::::::::::::::::::::w:::::::::::::::::::::::::::::4eyippa",
"w:::::::::::::::::::::#::::::::::::::#:::::::::::::::::::::::::w::::::::44eyippp",
"::w::w:::::::::::::::::::::::::::::::::::::#:::#:::::::::#:::::::::::::::eeyiiaa",
":w:::::::::::::::::::::::::::::::::w::::::::::::::::::::::::::::::::::::wweyipaa",
"::::::::::w::::::::::4>:44:::4:w:w:4w:w4w::w::w4:::w::4>4:>::::::::::::::weyiipa",
"##:#:::::::::::::::4>>>88555455e44ww444444444444wwwww5>q585>5::::::w::#::eeyipap",
"@@####::::::::::::ww889988y8eeeeeeeeeee5eeyeeee5reewe8r8997865::w#:#:::::weyipia",
"O@@@##::::::w#w#::>87djj000yyyyyyyyeyyeyyyyeyrryyrrryyhjjjd96>:::::::::::eeyipaa",
"OOOO@##::::::w#:::>9jglxkkpiiiyiiiiiiiiiiiiiiiiyiiiiiinklxgh85::#::::w#::weyiiia",
"OOO@@##::ww:w:w::589fxzzxn0iiipppppp0apppppppp0pippppMmxczlg755::w::::::44eyiiap",
"OOOO@#::::wwwwww558hgzzcxm0iyi0aNVVaNnnNNNaaNNNaaaappnmvcczgj955wwwwww:::eeyiaaa",
"@O@@##:::wweeeeeer9jlzccgj888y0kBBBBBBBBBBBBBBBBBNaNaNmvcczxj0eeeeeeeeww44eyippa",
"######:::werryyyyuukxcclg784560kxbbbbbbvbcbbbbvbBmNaVNmvcczxj0yyyyyyyeww:4eyiiaa",
":##:#::wwerriiiiiunkvczld64+*67lzccccccczzzzccccvmNNaNkvcczxkuuiiiiiyeew44eyipaa",
"#:#::::wweriippiipumxczld<*+*=7lzzccczzzzzzzzzzzxxkuunNvzccxknpppipiyeew44eyiipa",
":#:::wwweriippiiiyukxczld=*O+=77llllllllllllllllgj00y0jxzccvBNppiiiyyyee5eeyiiii",
"#####wweriippiiye88hgzlld=*+ %=<7ddd7dd7d77dd7dd768558jglccvBNapyyeeeeeeeyyeeyey",
"@@@#:weyippppirw4557glcld<*OO+*========<=====<===44*469gzccvBNpuye44:4eeyyeyeeee",
".OO#:wriippppyew##66glzld<* OOO%%****+***%*%%*+*++++@=6dlzcbBNpie4###:wyyyyee44w",
"oOo@#weyipapiyw:*+*<dlzld<*+o OOO*O++O++O++O++O*oOOO+*<dlzcvmaiyw#@@@#wyyiyeewww",
".Oo@#4eyippppyw#OO*<dlzld<*OO *O+****************oOO *<dlzzlk0y5w@oO@#wwyeyeeew4",
".oOO@#4eyyippyw:O+%=dlzld<*O+**==<<<<===<<=<=<==*** O*<dlzzlj854#@@Oo@#weeweeeee",
"oooO@@#:weiiiyw#+O*<dlzld<*OO%=77ddddddddddddddd7=*+O*<dlzzl98*@@Oooo@@#:wweeyyy",
"oooOO@O#:weiiyw:+O*=dllld<*O+=<dllzllllllllllllld<=OO*=dlzlf7=@OOOOOOOo@@#weyyip",
"OoOOooOO@:eyiy4:++*6dllld<*++=7flzzzzzlzzzlzzzzlf7=+O*<dlzld6*@OoooOoooOO@:wyiip",
"OooooooO@#weee:@+O*=7lll7=*O%=7dlllllllllllllllld7=**%=7fll7=*O ooooOoooO@#weyii",
"ooOoo.ooO@#w4w#@O *=7ffl7=*OO*=77ddfdddddddddfd77=*o *=7dlf7=*O oooOooooo@#weyyy",
"ooooooooO+*####@OO%=7dfd7=%OX+*===<<=<<===<<=<<==*%XOX=1dfd1=Xo ooooOooooO@:4eee",
"oOOoOoOOOOO+@@OOOO+=<7dd<%XOOOO%****%%*%****%%**++ OOX=1dds1=XO oooOooooOO@#:4ee",
"OoOooOoooOOOoOooOO**<sds<=XX  + OoO+O%XX+OOOO%XXOOoOO%%<7s1<*%OooOoOOOoOO@@@:::4",
"O@OOOOoOOooOoooooO+=<1s1<*%OOOO%%*O*++XX+++*++XX%OOOo+=<7d1<=%OOoooooooooO@@#:::",
"@@O@@OOoooooooo  OX%<1s1<%XOOOX$**%%%%$%**%%=%$%%OOOO%*<1ss<%Xo oooOoOoooO@@#:4:",
"@#@@OOOooo oooo   %=<ss1<=%OO+%==<<<<<<<<<<=<<<==%%Oo%*<1s1<=XOoooOooooooO@@##::",
"#:##@OOOooooOoO  XX=,1s1<%%OX%=<711ss1117111ss11==%OOX%<1s1<*%OOooooOoooooO##4:4",
":::##@@OOOOoOo   OX%<1s1<*+O+%=<7dssssssdssssss1<=%%XX%<1s1<*%OoooOOoOOOO@@##::4",
"::::##@@@OoOoooooOX%,111&%+XX%=<1s1ss11111111s11<=XXO%%=111<%XO ...OoOO@@@#:444e",
":w::::4##@@Ooo.ooOX-;,1,=%+OO%%=<<<<<<<<<<<<<<,===%OOX%=,1,<$XO ...oo@@##wweeeee",
"4:wweee44#@Oo.  .oX-&,,,&%XOO+X%%%=%%==%%&*=*&-&%%O OX$=,,,&%Xo ...o@@:weeeyyyyy",
":::weeeye4#@Oo .oOOX&&,,&+XOOOOX%X++XX+X+X++%+XXOXOO X$&&,,$%XO ..oOO#:eyyyiiiii",
"#::weeyyyw:@OOoOoO@$$&2&%XOOoOOOOOOOOXOOOOOXX.XOOOOOOXX%&2&&X+OOOOOO@:4eiipipipi",
"##::wyyyye4#@@@@@X@$2&&&$$XOOoOoOXOXOOOXXOXOXXoXOO X OX$&&&&%+@+O@@@#weyiipiiiii",
"#@@#4eeyeee4::##::-;&2&&$XOoooXXXXXXXXXXXXXXXXXXX   OXX%$2;;;>:::#:::4eyyiyiyiyi",
"@@@@#4eeyeeeeeeeqww;22&&$XXoOXXX$$$$$$%$$$$%$$$$%XX  XX%&&;2>555eeeeeeeyeeeeeeee",
"OOO@@:4weeyyyyyyyyrqq;&&$XXOOXX$&&&&&&&&2&&&&&2&$XXOOXX$&&2qqqyyiyyyyeee54445444",
"Ooo@@@#:5eeyyipiiitqq22&-XXOX@$;&,2,2&&2222&2222;-XXO+X$&22qqqipipiiyye444::4:4:",
"ooOOO@#wweyyiiipiiiqqq2;;##@#-;222332222222q2222;;--##-&222qttiiiiiiyy44::::::::",
"oooo@@#:45eyyyyyyytrqqqq;>;::wwq33333q3qqqqq2333q>>:::>>qqqqrryyyyyyee44::#::::#",
"ooOO@@#:44eeeeyeerrrtqttrqeeeqqqtttqttttqttttqttqqreeerrtqtqrreeyeeye544::::::::",
"oOOOO@#::444wwewww5qryitiyyyyiiiptpttnttptptuiuuiityittiiiirqeew445444::::::::::",
"ooOO@@@::4:44::::weeriipipipiptpppppppMpipupppppipiiiiipiiyrewww:::44:w:::::4:44",
"ooo@@@#::::::::::wweeyiiiiiiiiiiiiiiiitpiiiiiiiiiiiipiiiiirrew:::::::::::::44444",
"oOOO@@#::::::::::::eeyyyyyyyyyyyyyyyyyyyyyyyiyyyyyyyyiyyiyeee4::::#:::::4:4eeeee",
"oooO@@#::::::::::::weeeeeeyeeeeeyeeeeeeeeeeeeeeeeeyeeeeeeeeew::::::::::::44eeyyy",
"ooO@@@#w:4::::::::::wwweeewwweee5w5wwweewwew4wwwewwww4ew44444::::::::::::5eeyyii",
"oOOO@@#::::::::::::::::::::4::::4:::w:::4::w4:44:44:4:44:4::::::::::::::4eeyippp",
"ooo@O@#::::::::::4:::::::::::::::::::::::::::::::::4:4:::::::::::::::::::4eyiipa",
"oooO@@#::::::::::::::::::::#:::::#:::#::::#:::#:::##:##:::::::::::::#:#:4weyipaa",
"oooOO@#::::::::::::::::::#:::#::::::::#::#:::#:::#:::#4:#::::::::::::#:::4eyippa",
"oooo@@#::::::::::::::::::::::::::::::::::::::::::4::::::::::::::::::::::4weyippa",
"ooO@@#::44:44:4::::::::::w:4:::::::::4:4:4:4:444::4::::4::4::4:4:4:44:::4eeyippa",
"@@@@#:w44www554:::::::::4w444444::444wee444e4444e44e44w4:::4454w4w44wewe5eyyipap",
":#:wwweeeeeeeee44::::::44eeeee4::44eeeeeeeeeeeeeeeeeew544::4eeeeeeeeeeeeeyyyiapa",
"eeeeeeyyyyyyyeee44::::44eeeyee54:44eeyyyyyyyyyyyyyyyyyew44:5eeyyyyyyeyyyyyiipppp",
"yyyyyyiipiiiyyee4:::::44eeyiyee4:4eeyiiipiiiiiiiiiiiiyee4:weeyyipiiiiiiiyippppap",
"iipiipippppppyye4:::#::4eyiiiye544eyyppppppppppippppiiyew45eyipppppppppppppppppp",
"appaapaaapaapiyew:::::45eiiiiyee44eyipppappppapaapappiye5:5eyippappppppppppppppp",
"aaaaapapaaappiyew4:#:::eeyppiye444eyipaaapaapaaaaaappiye54weeppaaaaapaaaaaappapa"
};
