/* XPM */
static char *player[] = {
/* columns rows colors chars-per-pixel */
"80 80 149 2 ",
"   c #140C0C",
".  c #1D191A",
"X  c #201F1E",
"o  c #26201F",
"O  c #1E1F20",
"+  c #1F2020",
"@  c #272626",
"#  c #332C2B",
"$  c #2E302F",
"%  c #37302F",
"&  c #262E33",
"*  c #293438",
"=  c #3B3332",
"-  c #40322F",
";  c #473A39",
":  c #523F3B",
">  c #2F403D",
",  c #36403F",
"<  c #4F403E",
"1  c #51413F",
"2  c #2A3C46",
"3  c #323C40",
"4  c #2E4249",
"5  c #324645",
"6  c #3D524F",
"7  c #2E4959",
"8  c #324B59",
"9  c #395759",
"0  c #3D615E",
"q  c #324F60",
"w  c #365665",
"e  c #395F73",
"r  c #3E6464",
"t  c #3C6478",
"y  c #4C4A48",
"u  c #584643",
"i  c #4D514F",
"p  c #475859",
"a  c #565250",
"s  c #634E4A",
"d  c #68524C",
"f  c #6E5650",
"g  c #775C55",
"h  c #7D6059",
"j  c #495C66",
"k  c #416865",
"l  c #546764",
"z  c #49706D",
"x  c #456A78",
"c  c #526973",
"v  c #477778",
"b  c #6A6662",
"n  c #746E6A",
"m  c #78726E",
"M  c #68757B",
"N  c #797773",
"B  c #82635C",
"V  c #4C827D",
"C  c #5C837E",
"Z  c #3D6B82",
"A  c #3D728B",
"S  c #426D83",
"D  c #467688",
"F  c #587989",
"G  c #497D92",
"H  c #667F8A",
"J  c #4D8685",
"K  c #518E89",
"L  c #54928D",
"P  c #4B8597",
"I  c #588998",
"U  c #4D919F",
"Y  c #559798",
"T  c #6C8487",
"R  c #78989B",
"E  c #5BA29B",
"W  c #64A09B",
"Q  c #4F93A1",
"!  c #5499A5",
"~  c #688EA1",
"^  c #6899A6",
"/  c #7A9BA8",
"(  c #5CA7A7",
")  c #5CABB1",
"_  c #5FB1B5",
"`  c #62ADA9",
"'  c #7EABAC",
"]  c #62B3AC",
"[  c #76B1AB",
"{  c #66ADB2",
"}  c #64B7B7",
"|  c #7EB3B8",
" . c #67C1BD",
".. c #74C4BC",
"X. c #6CCAC4",
"o. c #79CBC5",
"O. c #6DD4CC",
"+. c #72D5CE",
"@. c #6FD9D1",
"#. c #74DBD2",
"$. c #77E1D8",
"%. c #8E8984",
"&. c #928C87",
"*. c #809198",
"=. c #999D99",
"-. c #A49D97",
";. c #AAA49E",
":. c #8AA4AD",
">. c #9DACA6",
",. c #8DA8B4",
"<. c #9AACB2",
"1. c #93B9B6",
"2. c #ABA7A1",
"3. c #B1ACA5",
"4. c #89C4BD",
"5. c #C6C4BC",
"6. c #AABDC2",
"7. c #95CBC8",
"8. c #86D5CD",
"9. c #9AD5CD",
"0. c #8DDCD4",
"q. c #90DFD7",
"w. c #B7C6C9",
"e. c #B3D7CF",
"r. c #A3DDD6",
"t. c #8FE0D6",
"y. c #90E1D8",
"u. c #A9E4DB",
"i. c #BFE3DB",
"p. c #AFE9E0",
"a. c #B0ECE2",
"s. c #D5CEC6",
"d. c #C2D1C9",
"f. c #D6D1C9",
"g. c #CBD5D3",
"h. c #D9DDD9",
"j. c #C5E8DF",
"k. c #DAE2DE",
"l. c #E3E2DD",
"z. c #C8ECE3",
"x. c #DAE8E1",
"c. c #CEF2E8",
"v. c #D0F5EB",
"b. c #EAECE3",
"n. c #F6EEE4",
"m. c #E5F4EA",
"M. c #F8F5EC",
"N. c #E7FAF0",
"B. c #FFFEF3",
/* pixels */
"@ @ + + + + + O + O + + @ @ # % = ; ; % # @ @ O O O O O X . . . . . . . . . . . . . . . . . . . . . . . . . . O O + @ % , < - , = # @ o O O O O O O O O O O O O ",
"@ . + @ @ + @ O O @ + . @ @ # = = ; = = # # @ O O o O o O O o O X o + o X X X o O O O O X . X O . X X . O O + + + + @ # - - < - = # @ @ @ O O o o & o X O O O O ",
"@ + @ + o + + @ @ @ o @ @ @ # = = ; ; - # & o o @ O @ @ @ & @ @ @ $ & & $ & @ @ > @ $ $ @ > @ > @ > @ $ @ & @ + @ @ @ # % - - , = # & @ O o o o o o o @ @ @ @ o ",
"+ @ . @ @ @ @ @ @ @ @ @ @ # % = ; ; = % # o o @ & & & & * * 4 4 > 5 > > > 5 > 5 > > > > > > > > > > , > > > > & @ @ @ $ % - < - - # # @ & o & @ & # @ & # # # # ",
"+ + O @ @ @ # # # # $ # # % = = = ; = % # # o o & & 2 2 2 q 9 0 r r r r r r r r V 0 0 V k k k r r r z r 0 0 6 > & o o # % < - < = = # # # # # & # # # = - ; ; ; ",
"+ + @ @ @ @ % % % % % % = = = ; ; ; ; % # o & & & 2 2 7 j c v F V L L L L K L V V V V V V L V V L L L V V V 0 > > $ o # % - < - ; = = = % % % # = = ; ; < < 1 u ",
"+ . @ @ # # = = = - - ; = ; ; ; ; ; ; # @ o @ & 2 7 q Z Z G I ! ] ] ] ] ] ]  .` ] ] ] ]  .] ] ] ] ]  .] E C V 0 > @ o # # = - < ; ; ; = = ; = ; ; ; < u s s s s ",
"@ @ @ @ # % = ; ; ; ; ; ; ; ; ; ; ; - # # # & & 2 7 e Z G Q { }  .O...O.O... .....O. .O...O...O.O.O...O. .` V r > $ o # # = = < ; ; ; ; ; ; ; ; ; < u s d f g g ",
"@ @ @ # $ = ; ; ; < ; ; ; ; ; < ; ; - % # o @ & 2 q e A G ! _ X.@.#.#.#.#.+.#.+.#.@.+.+.+.#.+.+.#.$.$.@.O.] L r > $ @ # # - < < < ; ; ; ; ; ; ; ; 1 u s f g g g ",
"# # # = = = ; ; < ; < ; < ; ; ; ; ; = % # @ & & 2 7 Z A Q ) _ X.@.$.$.$.#.$.#.$.#.$.#.$.$.#.$.#.$.$.$.$.@.] L z > & o @ # - - < ; ; ; < ; ; ; ; 1 1 s d g g h h ",
"% % = = = ; ; ; ; < ; < ; < < ; ; ; - % # o & & 2 q Z A P ! _ X.+.#.#.$.#.#.#.#.#.#.#.#.#.#.#.#.@.$.$.$.O.] L r > $ @ @ # - < ; ; < ; < ; ; ; < ; 1 s d f g h h ",
"; - - = ; ; ; < ; ; ; ; ; ; ; ; ; ; ; % # o @ & 2 q Z A Q ! ) X.+.#.#.#.#.#.+.#.@.+.#.@.#.+.#.#.#.#.$.$...] L k 5 * @ @ # = ; ; < ; ; ; ; ; ; ; 1 1 u d f g g h ",
"; ; ; ; ; ; ; ; ; ; < ; ; ; < ; ; ; - % # @ # & 2 q e S G ) _ X...#.+.#.+.+.+.+.#.+.+.+.+.+.+.+.#.#.#.#. .] L r 5 @ o # # - < ; ; < ; ; ; ; ; ; ; 1 u d f g g g ",
"; ; ; ; ; ; ; ; ; ; ; ; ; ; < ; ; ; ; # # o & & 2 q Z S G ! _ X.O.@.#.#.+.+.+.+.+.+.+.+.+.+.+.+.@.#.#.#.O.] K r 5 $ @ o # - ; < ; < ; ; ; ; ; ; < 1 u s d g g g ",
"; ; ; ; < ; ; ; ; ; ; ; ; ; ; ; ; ; ; # @ o @ & 2 7 e S G ) _  .O.+.#.#.+.+.+.+.+.#.+.+.+.+.+.+.#.#.#.#...] K r > $ o # # - ; ; ; ; ; ; ; ; ; ; < 1 s s f g g h ",
"< < ; < ; < ; ; ; < ; ; ; < ; ; ; ; - - # @ & & 2 7 Z S G ! _  .+.+.#.+.#.+.+.+.+.+.+.+.+.+.+.#.@.#.#.#.O.] K r 5 $ o # # - ; ; < ; ; ; ; ; ; ; ; 1 u s f g g g ",
"; ; ; ; ; ; ; ; ; ; < ; ; ; ; ; ; ; ; # # o @ & 2 q e S P ! _ X.+.+.#.+.@.+.+.+.+.+.+.+.+.+.+.+.@.#.#.#.O.] L r > > o # # - < < ; ; ; ; ; ; ; ; ; 1 s s f g g h ",
"; ; ; ; ; ; ; ; ; ; ; ; ; ; ; < ; ; - % # o @ * 2 q e S P ! ) X.O.+.#.#.#.+.+.+.+.+.+.@.+.#.+.+.+.#.#.#...] L r > @ @ @ # - - < < ; ; < ; ; ; ; ; 1 u s f g g g ",
"3 ; - ; ; ; ; ; ; ; ; ; < ; ; ; ; ; 3 % # @ & & 2 q Z S P ! _ X.O.+.#.#.#.#.+.@.#.+.+.+.+.+.+.+.#.#.#.#.O.] L r > & @ @ # - < - ; ; ; ; ; ; ; ; < 1 u d f f g h ",
"% % = = = - ; ; ; < ; ; ; ; < ; < ; - % # @ @ & 2 7 e D P ) _ X.+.#.$.#.#.#.#.#.#.+.+.+.+.+.+.+.#.#.$.$... .L r > > @ @ # # < < < ; ; < ; ; ; ; ; 1 u d f g g g ",
"& # # % % = ; ; ; ; ; ; ; ; < ; ; ; - % # @ @ & 2 q e S P ! } X.#.#.$.#.$.#.#.#.#.+.+.+.+.+.+.#.@.#.$.$.O.] L r 5 $ o o # - < < ; ; ; ; ; ; ; ; < 1 s s f g g h ",
"o @ @ # % = - ; ; < < ; ; ; ; ; ; ; ; % @ @ @ & 2 q e D P ! _ X.+.#.#.#.#.#.@.+.+.+.+.#.+.+.+.+.#.#.$.$.O.] L r > $ o # % - ; ; < ; ; ; ; ; ; ; < 1 u d f g g g ",
"@ o @ @ # = ; ; ; ; ; ; ; ; ; < ; ; ; # # @ @ * 2 q e S P ! ) } ..O.O.o. .O...O.+.@.+.+.+.@.+.+.+.#.@... .` V 0 5 $ o # # - ; ; < ; ; ; ; ; ; ; ; 1 s s f f g h ",
"@ @ @ # % = = ; ; ; < ; ; < ; ; ; ; - % # @ @ * 2 w e S G U ! ( ] ] ] ] ] ]  ... ...+.+.+.#.@.+.+... . .` L V 6 > @ o # # = ; ; ; ; ; ; ; ; ; ; ; 1 u s f g g h ",
"# # # # = - ; ; ; ; ; ; ; ; < < ; ; - % # o @ & 2 q Z Z D G F J V C V L L L E ]  . ...@.#.#.@.+. .} ] E K v 0 5 * @ @ # % - < < < ; ; ; ; ; ; ; < 1 u d f g g h ",
"= = = = = = ; ; ; ; ; ; ; ; ; ; ; ; ; # # @ @ * 7 q j Z S Z x x k z k 0 k z V V `  .O.@.$.#.@.@. .] L V r 0 5 > * @ o # % = ; ; ; ; ; ; ; ; ; ; ; u u d f g g h ",
"- - - ; ; ; ; ; ; ; ; < ; ; ; ; ; ; - % # o @ * 2 q Z Z Z e j 7 5 > > > 5 5 0 V E ] ..@.$.$.@... .E V 0 5 > & @ @ @ @ $ % = ; ; ; < ; ; ; ; ; ; < 1 u d f g g h ",
"; 3 ; ; ; ; ; ; ; ; ; ; ; < ; < ; ; ; # # o & & 2 q e Z Z w 2 2 * @ @ @ @ * 6 z L  .O.@.$.$.#...] L r 6 * @ O O + o @ $ % = ; ; ; < ; ; ; ; ; ; ; 1 u s f f g g ",
"- ; ; - ; ; ; ; ; < ; ; ; ; ; ; ; ; ; # # o & & 2 w Z Z w q 2 & + O . . O @ 5 0 L ] ..$.$.$.$...] L r > + O . . O @ @ # = ; ; < ; ; ; ; ; ; ; ; ; < u s d f f f ",
"= % = = - 3 ; ; ; ; ; < ; ; ; < ; ; - # # @ @ * 7 w w Z e q 2 & O         + > 0 V ] O.@.$.$.@.O.] V 0 > + . . . X @ @ # = - ; ; < ; ; < ; ; ; ; < < 1 u u s s s ",
"# # % % = - ; ; ; ; ; ; < ; ; ; ; ; - = @ @ & * 2 q Z Z e q 2 @ .       . + > 0 V ]  .$.$.$.@. .] K 0 > + .   . X o @ # = = - < ; ; ; ; ; ; ; ; ; < < 1 u u u u ",
"@ @ @ # % = - ; ; < ; ; ; ; < ; ; ; - = # o @ & 2 j Z Z Z 7 2 & O O .   O + > 0 L ] O.$.$.$.$. .] V 0 > + . . . O @ @ # = = ; ; < ; ; ; < ; ; ; ; ; ; < < 1 1 1 ",
"O @ o & # % = ; < ; < ; ; ; ; ; ; ; - - # # @ * 2 q j Z Z j 8 3 * @ # # @ > , V K ] ..#.$.$.#.O.] K z i $ # o o + @ @ $ % = < < ; < ; ; ; ; ; ; ; ; < < ; < < < ",
"O o o @ # % ; ; ; ; ; ; ; ; < ; ; ; - % @ o & & 2 7 Z Z Z j j u i 6 1 1 1 p l C W ..+.#.#.$.#... .W C l i < = $ @ @ o # % ; = ; ; ; ; ; < ; ; ; < ; ; < < < 1 1 ",
"O O o # # % = ; ; ; < ; ; < ; < ; ; ; # # o & & 2 q Z Z S F H H C C B B B C C =.[ ..+.@.@.$.@.+...1.R C C b a < $ @ @ # % = < ; ; < ; ; ; ; ; ; ; < < 1 u u u u ",
"O o o o & % = ; ; < ; ; ; ; ; ; ; ; - # # @ @ & 2 q Z S F H *.:.-.;.3.;.;.;.>.4.4...+.+.@.@.O.+...4.4.3.=.%.n a , # o # # = ; ; ; ; < ; ; ; ; ; ; < u u s d d d ",
"O O @ @ # % - ; ; ; ; ; ; < ; < ; ; - = # o @ & 2 q Z S H ,.,.6.5.f.f.f.5.5.d.e.9.8.+.+.O.@.+.o.0.9.e.d.5.3.&.b < $ o # # - < ; ; < ; ; ; ; ; ; ; 1 u s s f f f ",
"O @ @ @ & % ; ; ; < < ; ; ; ; ; ; ; - = # @ & & 2 q Z S G ,.6.g.l.n.n.n.n.n.x.j.r.0.+.+.O.@.+.#.t.u.z.x.h.5.2.B y # @ @ # = ; ; ; ; ; ; ; ; ; ; < 1 u s d f f g ",
"O O @ @ # % ; ; ; ; ; ; ; ; ; ; ; ; - = @ @ @ & 2 7 e S ~ ,.w.k.M.B.B.B.B.M.m.z.u.t.#.O.O.O.+.+.t.a.c.m.b.f.2.B y $ @ o # = ; ; ; < ; ; ; ; ; ; ; 1 u s d d f f ",
"O O o @ # % = ; ; < ; ; ; ; < ; ; ; = = # @ @ & 2 7 Z S ~ ,.w.k.M.B.B.B.B.M.m.z.u.t.+.O.O.O.+.#.t.a.v.N.b.f.3.C y $ @ o # = ; ; ; < ; ; ; ; ; ; ; < 1 u s s s d ",
"O @ o @ # % ; ; ; < ; ; ; < ; < ; ; ; # # @ @ & 2 7 Z S H ,.w.k.M.B.B.B.B.M.m.z.u.t.#.O.O.O.O.+.y.a.v.N.b.g.3.B i $ @ @ # - ; : ; ; ; < ; ; ; ; ; < < 1 u u u u ",
"O O o @ # = = ; ; ; ; ; ; ; ; ; ; ; - # @ @ & & 2 7 Z Z H ,.w.k.M.B.B.B.B.M.m.z.u.0.#.+.O.O.O.@.y.u.c.m.b.f.3.N i $ o @ # - ; ; < ; ; ; ; ; ; ; ; ; < < < 1 u 1 ",
"@ @ @ @ # % = ; ; < < ; ; ; < < ; ; - = # o @ & 2 7 Z S ~ ,.w.k.n.B.B.B.B.M.m.j.u.0.#.+.O.O.+.#.y.u.v.m.b.s.;.N y $ @ @ # = ; ; < ; < ; ; ; ; < ; ; < ; < < < < ",
"@ @ @ & % % ; ; ; ; ; ; ; ; ; ; ; ; ; # # @ & & 2 7 e A ~ ,.w.k.n.B.B.B.M.M.m.z.u.0.#.+.O.O.+.#.y.a.v.m.b.s.2.N y % o @ # = ; ; ; ; ; ; ; ; ; ; ; < ; < < < 1 1 ",
"# # # % % = ; ; ; ; < ; ; < ; ; ; ; - # # o @ * 2 7 Z A / ,.6.k.M.B.B.B.B.M.v.c.u.q.8.@.@.O.@.#.y.a.v.N.b.f.2.N y # @ o # - ; ; ; < ; ; ; ; ; ; ; < < 1 u u u u ",
"% % = = = ; ; ; ; ; ; ; ; ; ; < ; ; ; % o @ @ & 2 q Z Z ~ ,.w.l.M.B.B.B.B.B.m.z.u.q.#.+.O.@.+.$.y.a.v.N.b.f.3.N y # @ @ # = ; ; ; < ; ; ; ; ; ; ; < 1 u u s s s ",
"= ; = = ; ; ; ; ; < ; ; ; ; ; ; ; ; - = # @ & & 2 7 Z F ~ ,.6.l.b.B.B.B.B.M.m.z.u.q.8.+.O.O.O.@.t.p.v.N.b.s.2.N y $ @ @ % - ; ; ; ; ; ; ; ; ; ; ; < u s s f f f ",
"; ; ; ; ; ; ; ; ; ; ; < ; ; ; ; ; ; - - # @ @ & 2 7 w G G ,.6.f.b.M.M.M.n.b.x.i.r.8.+.O.O.X.O.O.8.u.z.b.l.5.-.N y % @ @ # - ; ; ; < ; ; ; ; ; ; < < u s f f g g ",
"; ; ; < ; ; ; ; ; ; ; ; ; ; < ; ; ; ; % # # & $ 2 7 w x F / <.w.h.l.l.l.k.g.g.r.7.o.X.X.}  . . .8.7.w.5.5.3.&.b y $ @ # % = ; ; < ; ; ; ; ; ; ; ; 1 u d f g h h ",
"; ; < ; < ; ; ; ; < ; < ; ; ; ; ; ; ; % % # % * * 2 8 q c F *.<.6.6.w.6.6.6.6.,.| { ) ) ) ) ) { { ' :.>.=.%.m f y = # % = ; ; ; ; ; ; ; ; ; ; ; < 1 s d f g h h ",
"< ; ; ; ; ; ; ; ; ; ; ; ; ; ; ; ; ; ; ; - = = = * 3 3 3 j c H R ,.,.,.,.,.,.,./ ^ ! ! ! Q Q ! ! Y T T M M b f u < = = = = ; ; ; ; ; ; ; ; ; ; ; < 1 u d f g h h ",
"; ; < ; ; ; ; ; ; ; ; ; ; ; ; < ; ; ; ; ; ; = = % % * 3 2 p c F H H ~ ~ ~ H ~ G G G G U G G G G D x l p y y y ; = = ; ; ; ; ; ; < ; ; ; ; ; ; ; ; 1 u d f g g h ",
"; ; ; ; ; ; ; ; ; ; ; ; ; < ; ; ; ; ; ; ; ; ; ; % # @ # 2 2 w Z G G G G G G G G G G G G G G G G x t 8 5 $ $ % - = ; ; ; ; ; ; ; ; ; < ; ; ; ; ; < < u s d f g g ",
"= ; = ; ; ; ; ; ; ; ; < ; ; ; ; ; ; < ; ; ; ; - % @ @ @ * 2 7 e A A G G G G G Q G G Q G G G Q G v w 4 * @ @ @ # ; ; ; ; ; ; ; : ; ; ; ; ; ; ; ; ; < u s d f f f ",
"% % % = - ; ; ; < ; ; ; ; < ; ; ; ; ; ; ; ; ; = % o o @ & 2 2 e A A G G G Q Q Q ! ! ! ! ! ! ! Q G r 7 & + o @ # = ; ; < : ; ; ; ; ; ; ; ; ; ; ; < < < u s s s d ",
"# # & % % = ; ; ; ; ; ; ; ; ; ; ; ; < ; < ; ; ; - # @ @ & 2 q e A G G G ! ) ) ) ) ) ) { _ _ { ) L v 9 * + @ @ # = ; < ; ; ; ; ; ; ; < ; ; ; ; ; ; < < u u u u u ",
"o & o # # = = ; ; < ; ; ; ; ; < ; ; ; ; ; ; ; = # # @ @ & 2 7 e A G Q ) _ } X.X. . . . .X.X. ._ E J 9 5 # o o # - ; < ; ; ; ; ; ; ; ; ; ; ; ; ; < ; ; < 1 1 1 1 ",
"o o @ & # # ; ; ; ; < ; ; ; ; ; < ; ; < < ; ; = % # @ @ * 4 q t A G ! _  .X.O.O.+.O.O.O.+.+.+.X.( J r 5 @ o # # - ; ; ; < ; ; ; ; < ; ; ; < ; ; ; ; ; ; ; < ; ; ",
"O O @ @ # % ; ; ; ; < ; ; < ; ; ; ; ; ; ; ; ; ; % @ @ @ & 7 w v G ! ) _ X.+.@.#.#.#.+.+.+.X.X.} ( V j * @ @ # - ; ; ; ; ; ; ; ; ; ; ; ; ; ; ; < ; ; ; ; ; ; ; ; ",
"O o o @ # % = ; < ; ; ; ; ; ; ; : ; ; ; < ; ; = # # o @ & 8 r D ! ) _ X.X.@.#.#.#.#.+.+.X.X._ ) L v 9 * @ o o # = ; ; < < ; < ; ; ; ; ; ; ; ; ; ; ; ; ; ; ; ; ; ",
"O O & o # # ; ; ; < ; < ; ; ; ; ; ; < < < ; ; - # # o o * 9 v U ) _  .X.+.+.#.#.#.#.+.X. .} ( Y D r 8 * @ o @ # - ; ; ; ; ; < ; ; ; ; < ; ; ; ; ; ; ; ; ; ; ; - ",
"O o o & # % = ; ; ; ; ; ; ; < ; ; ; ; ; ; ; ; = # o o @ > w V E _ X.+.+.+.+.#.#.#.+.+.X.} ) Q P Z w 4 * @ @ # # ; ; < ; ; ; ; ; ; ; ; ; ; ; ; < ; ; ; ; ; ; ; ; ",
"O o o @ # # ; ; ; ; ; ; ; ; ; ; ; ; ; ; ; ; ; ; % # % $ 5 z P { X.+.@.#.+.+.+.#.#.+.O.X.} ) U G t w 7 * * $ % = = ; ; ; ; ; ; ; ; ; ; ; ; < ; ; ; ; < ; ; < ; < ",
"O o o & & # ; ; ; < ; < ; ; ; ; ; ; ; - ; ; , = = = , 6 r F ! _ o.$.$.#.#.#.+.#.#.#.O.X._ ) Q P J t 0 9 5 5 = 3 = = ; ; ; ; ; ; < ; ; ; ; ; ; ; ; ; < 1 1 1 1 1 ",
"o O @ @ & % = ; ; < ; ; < ; ; < ; ; ; ; - - - 3 ; p p z V E ]  .@.$.$.$.#.#.#.#.$.#.+.O.O.} ( ! U K V t r 0 6 , = = = = ; ; ; ; ; ; ; < ; ; ; ; ; < < u u u u u ",
"O o o @ # = ; ; ; ; ; ; ; ; ; ; ; ; - = # # % 3 8 j V L E ]  .+.#.$.$.$.$.#.#.$.#.$.#.+. .X. ._ ) ( E Y L V k 0 , = = % = - ; ; ; ; ; ; ; ; ; ; ; < 1 u s s d d ",
"O O @ o # = = ; ; < < ; ; < ; ; ; ; ; # # # % 3 p v L ]  . ...@.#.#.@.@.+.@.#.#.#.#.+.+.O. .X.X. . . . .] L V p 5 % @ # = - ; ; : ; < ; ; ; ; ; ; < u s s d f f ",
"O @ @ & # = = ; ; ; ; ; ; ; ; < ; ; ; # # @ & 2 r J ( } ..O.O... .O.O.O...O. .O.O. .O...X.O. . .X.X.X. . .` V 0 * # @ # % - ; : ; ; ; ; ; ; ; ; < : u s d g g g ",
"O o o & # = = ; < ; ; ; ; ; ; < ; ; ; # o @ # 2 r J ( }  . . . .] ] ] ] ]  .]  .] ] ] ] ] ] ]  .} } X.X. .E V r 5 @ @ @ % - ; ; ; ; ; ; ; ; ; ; < 1 u s d g g g ",
"O O O @ @ # = ; ; ; ; ; ; ; ; ; ; ; - # # @ @ * 9 J Y ) _ ] E Y E V V L V C V V V V L V L L V E Y ( ) _ ` Y V 0 5 @ @ @ # = ; ; ; ; ; ; ; ; = ; ; 1 s s f g B g ",
"O O o @ # % = ; ; ; ; ; ; ; ; ; ; ; - # o @ # 2 8 t P Y Y Y J v k r k k k k r r V r 0 z k k z k v J U Y Q K t 9 * $ @ @ % - - ; ; ; ; ; ; ; ; ; ; 1 u s f g g B ",
"O O o o # = = ; ; ; ; ; ; ; ; ; ; ; = = # o @ 2 6 t A J G t r 9 9 > > > 5 > > > > > > > > > > 6 9 r v D P A r 8 * @ @ # % - ; ; ; ; ; ; ; ; ; ; ; : s s f g g B ",
"@ o @ # # = ; ; < < ; < < ; < ; ; ; - % # @ & & 4 w t t t w 8 * $ $ @ $ $ $ # # $ $ # @ & @ @ $ * 8 w t Z e w 2 * @ @ # % ; ; : < ; ; < < ; ; < < 1 s s f g g g ",
"& # # = - ; ; 1 1 1 1 1 1 1 < < y ; - % @ @ @ & * 7 w w w 7 2 & o o o @ @ @ # - # # # # @ o @ @ & 3 7 9 w w 7 2 & @ @ # = ; < 1 < u y 1 1 1 1 1 1 u s d f g g g ",
"; ; ; ; < 1 u u s u u s u u u 1 : ; - = # @ + & * 4 7 7 7 2 & @ o o o # % - - - - - - # # o X X @ & 2 4 2 7 2 * & @ # # ; < u u s u u u u u u u u s s f g g g g ",
"1 u u u u s s s s d s s s s u 1 : ; - % # @ @ @ & * * 2 2 * + @ o o # # < < 1 1 1 1 : : - # @ X O & & 2 2 2 * & @ @ # - ; u d d d d d d s d d d d d f f g g g g ",
"s d d d d f d f f f f f f s s u : ; = = # @ @ @ @ & & & & + + & @ # = < 1 s d d f s s 1 ; = # @ @ + & & & & & + @ @ # = 1 u d f f f f f f f f f f f f g g g g g ",
"g f f f f g g g g g g g f f s u < ; ; % # @ @ + + + @ @ + @ + + o # < < s d g g g g f s u - # @ + + O @ @ @ @ + O @ # = u d f g g g g g g g g g g g g g g g g g ",
"g g g g g g g g g h g g g f d u < ; = % @ @ @ + + + @ . + + + @ @ % : 1 d g g B g B g d u = # @ @ O O O O + + + O @ # ; u d f g g g g g g g g g g g g g g g g g ",
"B g B B B g B g h g B g g f d s u ; ; % # @ @ + @ + . @ . O . O o # - u d g B B B B g d u ; # @ O O O O O . . + O @ # ; u d g h B B g B g g g g g g B g g g g g "
};
