/* XPM */
static char *tile[] = {
/* columns rows colors chars-per-pixel */
"80 80 94 2 ",
"   c #1D1E1F",
".  c #1D1F1F",
"X  c #1E1F1F",
"o  c #1E1F20",
"O  c #1E2020",
"+  c #1F2020",
"@  c #202121",
"#  c #212122",
"$  c #222222",
"%  c #232323",
"&  c #242323",
"*  c #262424",
"=  c #262524",
"-  c #272525",
";  c #282626",
":  c #2A2727",
">  c #2B2827",
",  c #2B2828",
"<  c #2C2828",
"1  c #2F2A2A",
"2  c #302B2B",
"3  c #302C2B",
"4  c #312C2B",
"5  c #332D2D",
"6  c #362F2E",
"7  c #362F2F",
"8  c #37302F",
"9  c #38312F",
"0  c #383030",
"q  c #3A3231",
"w  c #3B3332",
"e  c #3C3332",
"r  c #3D3433",
"t  c #3E3533",
"y  c #3F3534",
"u  c #403635",
"i  c #433737",
"p  c #433837",
"a  c #443837",
"s  c #453938",
"d  c #463939",
"f  c #473B3A",
"g  c #483B3A",
"h  c #493C3B",
"j  c #4A3C3B",
"k  c #4B3D3C",
"l  c #4C3E3C",
"z  c #4E3F3E",
"x  c #4F403D",
"c  c #4F403E",
"v  c #50403E",
"b  c #53433F",
"n  c #534340",
"m  c #544341",
"M  c #564442",
"N  c #574642",
"B  c #574643",
"V  c #584643",
"C  c #5A4744",
"Z  c #5A4843",
"A  c #5B4945",
"S  c #5C4945",
"D  c #5C4A45",
"F  c #5C4946",
"G  c #5D4946",
"H  c #5E4B46",
"J  c #5F4B47",
"K  c #604C48",
"L  c #614D49",
"P  c #634E49",
"I  c #654F4B",
"U  c #67514B",
"Y  c #67514C",
"T  c #68514C",
"R  c #68524C",
"E  c #69534D",
"W  c #6A534D",
"Q  c #6C544E",
"!  c #6E5550",
"~  c #6F5650",
"^  c #705751",
"/  c #715751",
"(  c #725952",
")  c #735952",
"_  c #745A53",
"`  c #765B54",
"'  c #775C55",
"]  c #785C55",
"[  c #785D55",
"{  c #785D56",
"}  c #795D56",
"|  c #7C5F58",
" . c #7C6058",
".. c #7D6058",
/* pixels */
"$ $ $ $ $ $ + + + . . + $ : 2 0 u p p 0 4 - $ . O O + $ . + + + + + . . $ $ - 1 0 u s h h h g g h h h h s y 5 4 : $ - 1 0 u a p 0 3 ; # o o o @ o @ o o . . . . ",
"$ $ $ $ $ $ $ $ $ $ + $ $ : 5 0 u p p 0 4 > $ $ $ + $ $ $ $ $ $ $ $ $ O $ $ : 2 5 p s h h h h g g h h h a p 0 4 : - > 4 0 u p p r 3 < & # # @ $ # # # # + $ $ + ",
"$ $ $ $ $ & & $ $ $ $ $ - 1 5 0 p p p e 5 1 * $ $ $ $ $ $ - $ - * $ $ $ $ - > 5 0 p s h l h g g g h h h s p 0 4 : - : 4 0 p p u r 3 < ; # # # & & & & - - - - : ",
"$ $ $ $ $ - : : : : : : > 4 8 u p a p 0 8 1 > : : : : : : : : : : : : : > > 2 5 e p g g h h g g g h h g s p r 5 1 1 1 5 0 p a p r 6 3 < < : ; ; < 1 ; 3 2 5 2 5 ",
"$ $ $ $ - > 1 1 4 4 4 4 2 0 0 u s s s p 0 8 5 4 1 1 2 2 2 2 4 4 2 4 1 2 2 5 8 0 y p s g h h g g g h h g a s r 0 8 5 9 0 u a s a y 0 6 3 3 1 1 3 3 6 6 e y u u s ",
"+ + $ - : 1 5 8 0 0 0 0 0 0 u a s s s p u e 0 5 8 0 0 9 0 0 8 0 0 9 0 0 0 0 0 y p a g g g g h g g g h g s s p r 0 e 0 y p s s s s r r 0 0 0 6 0 0 r s g x m b N ",
"+ $ $ - 1 5 0 y a u u p p p a s a h s a a p p p p p r p u a u p u p p y p p a a s h g h g g g g g h g g h a s p a u p a s a h a p p p s u r y u s h n C H L Y Y ",
"$ $ - , 2 0 u s s s s s s s h s g h h h s s s a s s s s s s s s s s s s s s s s a g g g g g g g g g g g g g h h s s s g h g g h h s s s s s s p h l B J Q / ( ` ",
"- > > 4 8 r s s h h h h h h h g g g g g g h h g h h g h g h h h g g h h h h g h g g g g g g g g g g g g g g g g g h h g g g g g s h h h f f p h h n A I ~ ` } | ",
"1 4 5 9 0 y s h h l h h h h g h g h g h h h h h h h h h h h h h h g h h h h h h g g g g g g g g g g g g g g h g h h h h h g g g h h h h h h h h l n J Q / ` | | ",
"0 0 0 0 u p s h h h h h h h g h g g g g g h h h h h h h h h h h h h h h h h h h g g g g g g g g g g g g g h h h g h h h h g h g h h h h f f f h l n C I / ` | | ",
"u u p p a a a g h h h h g g g h g g g g g g h g h g h g g h g h g g g h g g h g g h g g g g g g g g g g g g g g g h g g g g g g h s h h f f s h h n J I ~ ` } | ",
"s s s s g a h g g g g g g g g g g g g g g g g g g g g g g g g g g g g g g g g g g g g g g g g g g g g g g g g g g g g g g g g g s h h h h s p h h n C I ~ ` ` } ",
"h h h l g h h g g g g g g g g g g g g g g g g g g g g g g g g g g g g g g g g g g g g g g g g g g g g g g g g g g g g g g g g g h h s h h h s h l n A I ~ / ] } ",
"l h h h h h g g g g g g g g g g g g g g g g g g g g g g g g g g g g g g g g g g g g g g g g g g g g g g g g g g g g g g g g g g h s s h s h s h h l C I ~ ` ` } ",
"l l h l h h h g g g g g g g g g g g g g g g g g g g g g g g g g g g g g g g g g g g g g g g g g g g g g g g g g g g g g g g g g h h h h h p s h l n J I ~ ` } | ",
"h h h h h h h h g g g g g g g g g g g g g g g g g g g g g g g g g g g g g g g g g g g g g g g g g g g g g g g g g g g g g g g g h h g g s h s h h v H I ~ ` ` } ",
"s s s s s h s h g g g g g g g g g g g g g g g g g g g g g g g g g g g g g g g g g g g g g g g g g g g g g g g g g g g g g g g g h s g g h s s h l n C I ~ / ] } ",
"p p p a p s s h g g g g g g g g g g g g g g g g g g g g g g g g g g g g g g g g g g g g g g g g g g g g g g g g g g g g g g g g h h h h s h s s h c C I ! ` ` { ",
"5 8 5 0 r p a h g g h g g g g g g g g g g g g g g g g g g g g g g g g g g g g g g g g g g g g g g g g g g g g g g g g g g g g g h s h s h s s h h n H I ~ ` ] | ",
"1 1 1 5 0 y a s h h h g g g g g g g g g g g g g g g g g g g g g g g g g g g g g g g g g g g g g g g g g g g g g g g g g g g g g h h h h s h s s h m C I ~ ` ] | ",
"- > > 1 9 0 a s h h h g g g g g g g g g g g g g g g g g g g g g g g g g g g g g g g g g g g g g g g g g g g g g g g g g g g g g s h s h h s h g h n S I ~ ` ` { ",
"$ * > 1 5 e p s g h h h g g g g g g g g g g g g g g g g g g g g g g g g g g g g g g g g g g g g g g g g g g g g g g g g g g g g h h h h s s s h h n C I ! ` ` | ",
"- : > 1 8 0 p s g h h g g g g g g g g g g g g g g g g g g g g g g g g g g g g g g g g g g g g g g g g g g g g g g g g g g g g g h s h s h h s g l n A I ! ` ` | ",
"1 4 4 8 0 u p h g h h g g g g g g g g g g g g g g g g g g g g g g g g g g g g g g g g g g g g g g g g g g g g g g g g g g g g g g g g g s g s h h n J I ~ ` ` | ",
"0 0 0 r r p s s g g g g g g g g g g g g g g g g g g g g g g g g g g g g g g g g g g g g g g g g g g g g g g g g g g g g g g g g g g g g h s s g h n A I ~ ` | | ",
"r p p p s s s g g g g g g g g g g g g g g g g g g g g g g g g g g g g g g g g g g g g g g g g g g g g g g g g g g g g g g g g g g g g g g s g g h m C I ~ ` } | ",
"a a p p s s g g g g g g g g g g g g g g g g g g g g g g g g g g g g g g g g g g g g g g g g g g g g g g g g g g g g g g g g g g g g g g g s s h h n C I ! ~ ` ` ",
"p p a a a s g g h g g g g g g g g g g g g g g g g g g g g g g g g g g g g g g g g g g g g g g g g g g g g g g g g g g g g g g g g g g g h s s h h n B J I ~ ! ~ ",
"0 0 0 r y p s h g h h g g g g g g g g g g g g g g g g g g g g g g g g g g g g g g g g g g g g g g g g g g g g g g g g g g g g g g g g g g g g s h l n C J K L I ",
"4 4 5 5 0 y p s g h h g g g g g g g g g g g g g g g g g g g g g g g g g g g g g g g g g g g g g g g g g g g g g g g g g g g g g g g g g g g g g h l l n B C C C ",
"- > 1 1 8 r p a g h h g g g g g g g g g g g g g g g g g g g g g g g g g g g g g g g g g g g g g g g g g g g g g g g g g g g g g g g g g g g g g h h l l l v v n ",
"$ $ - > 5 0 p s h h h g g g g g g g g g g g g g g g g g g g g g g g g g g g g g g g g g g g g g g g g g g g g g g g g g g g g g g g g g g s s h h h h k l l l l ",
"O $ $ : 4 8 u s g h h h g g g g g g g g g g g g g g g g g g g g g g g g g g g g g g g g g g g g g g g g g g g g g g g g g g g g g g g g h h g h h h l l c v n n ",
". $ $ : 1 0 y s h h h g g g g g g g g g g g g g g g g g g g g g g g g g g g g g g g g g g g g g g g g g g g g g g g g g g g g g g g g g g g s h h l v m M C C C ",
"+ $ $ : 4 8 p s h h h h g g g g g g g g g g g g g g g g g g g g g g g g g g g g g g g g g g g g g g g g g g g g g g g g g g g g g g g g s h h s h l m C J I I Q ",
". $ $ : 4 0 u s g h h h g g g g g g g g g g g g g g g g g g g g g g g g g g g g g g g g g g g g g g g g g g g g g g g g g g g g g g g g h s g s l v C J I ~ ! ~ ",
"$ $ $ : 4 9 a s h h h g g g g g g g g g g g g g g g g g g g g g g g g g g g g g g g g g g g g g g g g g g g g g g g g g g g g g g g g g h h s g h m C L Q ! / ` ",
". $ * : 4 0 p s h h h g g g g g g g g g g g g g g g g g g g g g g g g g g g g g g g g g g g g g g g g g g g g g g g g g g g g g g g g g s h g g h n C J L ~ ! ~ ",
". $ $ - 4 5 p a g h h h g g g g g g g g g g g g g g g g g g g g g g g g g g g g g g g g g g g g g g g g g g g g g g g g g g g g g g g h h s s g h l n C K I I I ",
"O $ $ : 2 8 p s h h h g g g g g g g g g g g g g g g g g g g g g g g g g g g g g g g g g g g g g g g g g g g g g g g g g g g g g h h s h s s s h h l n m B C C H ",
". $ $ : 2 0 u s h h h h g g g g g g g g g g g g g g g g g g g g g g g g g g g g g g g g g g g g g g g g g g g g g g g g g g g g h s h h h h g g h h h l c c n m ",
"$ $ - : 5 0 u s g h h h g g g g g g g g g g g g g g g g g g g g g g g g g g g g g g g g g g g g g g g g g g g g g g g g g g g g h h h s h g s g h h h l k l l l ",
": : : 1 9 e p s g h h g g g g g g g g g g g g g g g g g g g g g g g g g g g g g g g g g g g g g g g g g g g g g g g g g g g g g s h h h h g h g h h l l v v v v ",
"1 5 5 8 0 y p s g h h g g g g g g g g g g g g g g g g g g g g g g g g g g g g g g g g g g g g g g g g g g g g g g g g g g g g g s h h h s h h s h l l m n C C C ",
"0 0 0 e r a s s g h g g g g g g g g g g g g g g g g g g g g g g g g g g g g g g g g g g g g g g g g g g g g g g g g g g g g g g h h s h h h s h h l m C J J L I ",
"u p u a s s g g g g g g g g g g g g g g g g g g g g g g g g g g g g g g g g g g g g g g g g g g g g g g g g g g g g g g g g g g s h s h h s s h h k C K I ! ~ ~ ",
"s s g s s s g g g g g g g g g g g g g g g g g g g g g g g g g g g g g g g g g g g g g g g g g g g g g g g g g g g g g g g g g g h h h h s h s h l n C I ~ / ` ` ",
"g g g h g g g g g g g g g g g g g g g g g g g g g g g g g g g g g g g g g g g g g g g g g g g g g g g g g g g g g g g g g g g g g g g g s h s h h n C I / ` } | ",
"h k l h g k k g g g g g g g g g g g g g g g g g g g g g g g g g g g g g g g g g g g g g g g g g g g g g g g g g g g g g g g g g g g g g h s s h l n J Q ~ ` | | ",
"k l l h k g h g g g g g g g g g g g g g g g g g g g g g g g g g g g g g g g g g g g g g g g g g g g g g g g g g g g g g g g g g g g g g s s s s h n C L / ` | | ",
"g h g g g g g g g g g g g g g g g g g g g g g g g g g g g g g g g g g g g g g g g g g g g g g g g g g g g g g g g g g g g g g g g g g g h s h h h n J I ~ ` | | ",
"s s s s s s g g g g g g g g g g g g g g g g g g g g g g g g g g g g g g g g g g g g g g g g g g g g g g g g g g g g g g g g g g h s h g h s s h h n C L ~ / ` ` ",
"u p u p s s s g g g g g g g g g g g g g g g g g g g g g g g g g g g g g g g g g g g g g g g g g g g g g g g g g g g g g g g g g h h h g h h s h h c C J I ~ ! ~ ",
"8 0 0 e u a s g g h g g g g g g g g g g g g g g g g g g g g g g g g g g g g g g g g g g g g g g g g g g g g g g g g g g g g g g h s h h s h h s h c m C J L I I ",
"4 4 5 0 0 u p s g h g g g g g g g g g g g g g g g g g g g g g g g g g g g g g g g g g g g g g g g g g g g g g g g g g g g g g g h h s h s h s h h l v m m C C J ",
"- : 1 1 9 e p s g k h g g g g g g g g g g g g g g g g g g g g g g g g g g g g g g g g g g g g g g g g g g g g g g g g g g g g g s h h h h s s h h h l c c n n n ",
"$ $ - , 4 0 u s g h h h g g g g g g g g g g g g g g g g g g g g g g g g g g g g g g g g g g g g g g g g g g g g g g g g g g g g h h h s h h s h h h h h h h h h ",
"o $ $ : 4 0 y s g g h g g g g g g g g g g g g g g g g g g g g g g g g g g g g g g g g g g g g g g g g g g g g g g g g g g g g g h s h h h h h h s h h s h s h s ",
"o + $ : 2 8 p s h k h g g g g g g g g g g g g g g g g g g g g g g g g g g g g g g g g g g g g g g g g g g g g g g g g g g g g g h h s h s h s h s h h s s s s s ",
"o o $ : 2 0 p s g h h g g g g g g g g g g g g g g g g g g g g g g g g g g g g g g g g g g g g g g g g g g g g g g g g g g g g g h h s s s h h s h h s s s s s s ",
"$ $ $ : 4 0 y s g k h h g g g g g g g g g g g g g g g g g g g g g g g g g g g g g g g g g g g g g g g g g g g g g g g g g g g g h s h h h h h h h s h h s h h s ",
". $ - : 2 0 p s h h h g g g g g g g g g g g g g g g g g g g g g g g g g g g g g g g g g g g g g g g g g g g g g g g g g g g g g h h h s h s h h h h h h h l h h ",
"$ $ $ : 5 5 p s h h h g g g g g g g g g g g g g g g g g g g g g g g g g g g g g g g g g g g g g g g g g g g g g g g g g g g g g h s h h h h s h h h l l h n n n ",
". $ - : 1 0 y s s h h h h g g g g g g g g g g g g g g g g g g g h h s h s h g g g g g g s h h h h s h h g g g g g g g g g g g g g g g g s s h h h l v m C C C J ",
"o $ $ : 1 0 p s h h h h g g g g g g g g g g g g g g g g g g g g h s h h s h h h g g g g h h s h h h s h g g g g g g g g g g g g g g g g h g h s h l m C K P I I ",
"$ $ $ : 2 0 u s h h h h g g g g g g g g g g h h g g g g g g g g h h h s h s h s g g g g s h h s h h h h g g g g g g g g g g g g g g g g h s s h h n C K I ~ ! ! ",
"o $ - : 4 8 a s h h h h g g g g g g g g h h s h g g g g g g g g s h h h h h h h g g g g h h h h s h s h g g g g g g g g g g g g g g g g h h s s h v C I ~ ~ ` ` ",
"o $ $ : 1 e u s h h h h g h g g s h h g g g g s h h s g s h h g s h h h h h h h s h g s h h h h s h h s s h h s g g g h h h s h h h s h s h s s h n C I ~ / { | ",
"o o $ - 1 5 y s s g g s s s g g g h h s g g g h s s h h h s h s h h s f s s s s g s h s s s s s h s s h h s s h h h s h s s g h s s s h s s s s h n C I ~ ` | | ",
". o $ - 1 0 y p g h h s s g s g s h s h h h g h h s s s h s g g s h h s f s s h s g s s g s h s s g s s s h h s h s h s h s s s s h s s g s s s h v C I ~ ` } | ",
"o o $ - 1 0 y s s h h g g g g g h h h h s h g s h h h h s h s g h f h s h h h s h s h g h s s h s h h s h s h h h s h g g h h s s g g h s s s h h n C I ! ` ` | ",
"- - - 1 8 8 a h h l l h k h h k h s h s s g h h h h h h k h h h h h h k k k h h h h h h h h h g h h l h h h h h h h h h h h l h h h h l h h h h c n S I ! ` ` | ",
"5 5 5 8 r p x x b b b N l n l l h h h h h h h k l l l b b k l h h h l l l n n n n n n n n n n n n n n n c c v l h h h h l c m n m m v m c n n v m C J ! ~ ` { { ",
"a a s h x b N Z A A A H C C n n l h h s s h h l m m C A C m n k h l l n C C H S C A C H C H C C C K A A C C n c l h l v n M C A S S H C C C C A J J I ! / ` ` } ",
"b N N A H H L U U I U U L H C n l h h s s g h l m C J L J C m l l l n C J L I I I I I I I I I I I I I I L J C n l l l n C J I I I I I I I I I I I Q ! ~ ` ` } } ",
"R U U R R Q R ~ Q ~ / ~ Q Y H N n h s s s h h c C J I Q I J m n l n m J I ! ~ ~ / ! ! ! ~ ~ ~ ! ~ ~ ~ ! ! I J n v l v M J I ~ ! / ~ ~ ~ ! ! ~ ~ ! ~ / ` ` ` ` } ",
"( ( ( ( ( ' ( ' ` ` ` ' ( Q L C n h h s s s h m C I ! / ~ L C n l l C K ! / ` ` ` ` ` ` ) ` ` ` ` ` ` ` ~ ! J C n l l B J ~ / ` ` ` ` ` ` / / ` ` ` ` ` ` ` } ` ",
" .' ] ' ' ' ' ' ] ] ] ] ` Q I C n k s s s h h n H L ~ ( ~ I C l l n C I ! ` ` | } ` ` ` ` ] } ` } ] } ] ` ! I C n l n C I ! ` } } } } { { { } ` ` ` ` } ` } ` { ",
" . . . . . . .] ] |  . .' / Y H n h h s s s h n A Q / ` / I C m k n C I ! ` | | | | | } ] | | ] | | | | ` ~ I C v l n C I ~ ` } | | | } } } } | } } | ` } ` { ` "
};
