/* XPM */
static char *wall[] = {
/* columns rows colors chars-per-pixel */
"80 80 51 1 ",
"  c #170E14",
". c #1D161A",
"X c #22181D",
"o c #1E1F20",
"O c #261D21",
"+ c #1F2020",
"@ c #272525",
"# c #332B2B",
"$ c #37302F",
"% c #3B2F30",
"& c #3C3332",
"* c #402D2F",
"= c #412E30",
"- c #473A39",
"; c #523D3C",
": c #49413D",
"> c #51423F",
", c #4C4742",
"< c #584743",
"1 c #5D554E",
"2 c #5F5851",
"3 c #634E49",
"4 c #67514C",
"5 c #6D5851",
"6 c #755B54",
"7 c #686158",
"8 c #7B635A",
"9 c #7A6D62",
"0 c #7A7065",
"q c #83675D",
"w c #886E63",
"e c #8D7165",
"r c #977A6C",
"t c #8A7E71",
"y c #997F71",
"u c #9A806F",
"i c #8E8375",
"p c #998475",
"a c #A98C79",
"s c #AD907D",
"d c #B1927E",
"f c #AA9685",
"g c #B49986",
"h c #B5A18E",
"j c #BDA591",
"k c #C3AA96",
"l c #C8B29D",
"z c #CDB7A2",
"x c #D1BCA6",
"c c #D7C3AD",
"v c #DBC8B1",
/* pixels */
"@+@.@++++++++@$&&-&%#@@ooooooo@o@ooooo@#%-----,---;--%%#@@@$$&,&$#@ooo+++ooooooo",
"+@@++++@++++@@$&-&-%#@@oooo@oooo@ooo@@@#%%------------%@@@@@&&-&&#@@@o+++@++++++",
"@++@+@++@@+@@@$$---&#@@@@@@@@@@@@@o@o@@$%---------,--%%#@@##%--&&$@@@+@@@@@@@@@@",
"++@+@@@@@@#@#@$&&--&$#@@@@@@@@@@@@@@@@#$%----,---;----%%#@#$&&--&$$@@@@@@@@#####",
"+++@@@@$###$$$$&&--&%%###@######@###$$$$=--------;;---%%##%%&&--&&%##@##$$%%-&=-",
"++@@@##$$$$&$$&:---&&%%%$&$&$$$$&$$$$$&&----;----------%&%%%&,,&-&&%%%%%&&--;,<<",
"+++@#$$&&&&&&&:&-------=-&-&&&&&-&&&&&:&-------,---------&&------&-&&&=&:-:,1344",
"@@@@#$&:-,--:,&:--------:&:&,-:-&,---,&,--,-------,------,--------------:,,14556",
"@@@#%&---:----:---:----:--;-----,-:--;---------;-------------,--:------;;;346666",
"###$%&----:-;---;---:;---,----,----:----,--;-------;--;-,---------,-----;;3466q6",
"$$%%&---:-:;-:-;-------:---;-;--:---,-;-----,--;;----,----,-,---;--:-,--;;;4666q",
"&--&-----:------:-----;--;-:---:--:-----;--------------,----------------;;33466q",
"--------:-------------,-------:----------------------;------------;-----;<<44666",
"-:-----:-----;-:-,-;-------,-:----------,----;---,------,-----,----------;<446q6",
"--::;------;---------;;--,-;--------,--;--;-------;---;----------:-------<<44q66",
":::--:--;---:--:---;---------:::,--,--,----,-,;-;-,-,----;-,-----;-------;<4466q",
"-----:------------------:----------,----,-&,--------------,-----:-------;><44q66",
"--------,------,;--------:-----:-------,-------------,-------------:----:><4466q",
"-&&-----;---;;-------&-%&&-&&-&&&&&&&&&&%&&-&&&&-%--&&&&&-&------;-------><46666",
"%%%&&&--------------%%#%###&########$$$&#####%%%##%%$#$$##%%&-----:------<<445qq",
"###$%&-------:-----&%#@@@@@@@@@@@@@@@@@@@@#@@@#@@@@@@@@@@@#%&---:--;----;<<45666",
"@@@#%%&---,---:-:,&$##@@@@@@@@@@@@@@@@@@@@@@@@@@@@@@@@@o@@@#&---:-------:><4566q",
"@@@@#&-----------&:$$###@@#@####@@$#@@@@@@###@@##@#@$@@@$#@%&&----;------>335666",
"@@@#$&&-:-::-----&&&:--,::,:::--,-,,:,,,,,-,--,-,,,-,,,,,,,---&&-=-----:-><45668",
"###$&&:-:--:--&&$$&,,27777777777777777775577777777777777721,,&$$$&------;><3466q",
"$$$$&&---::---$#@$&,70tiiiiiitiiiittiitiiyiiiiiiiiitiiiiit07,&$@$&&:::--;;346666",
"&&--&-----:--&&@@#,10ifhhhhhhhhhhhhhhhhhhhhhhhhhhhhhhhhhhhi01,#@@$&&----->334q6q",
":-&---------:&$$#$,7tfklxzzxllllzzlllllzlllllllllllzzzzzzhht7,$$$&-:----;><3446q",
"&--&:------&&-&&:,20ihlzczzzzzzzzzzxzzzzzzzzzzzzzzzzzzxxzzhi02,&&&&&&-&-->>34455",
"$$&$&&----&&&&,,170ifhlzzzlllllllllzllllllkllllllllllzzzlzhfi072,,:$%&&-;:>>3333",
"#$$$&-:--%%#$&,70tifhhhhhjjjjjjjhjhhhhhhjjjjjjkjjhhhhklhhhhffii07,&$##%-->><><<>",
"@@@#$&&:%%#@$:20ihhhhhfhfhfhggggfhhfhhfhggggggfhfhfhffhffhhhhhhi02:$@#$---;>>>>>",
"+@@@$$&:$$$@$,7idkkkjddadaadadadffasasssdaddaddaadddadaaddgjklkdi7:$@#$&::::>>:>",
"++@@@$$&$$$$$,7udklkjddaaaaaaaaafpaaaaaaaaaaaaaaaaaaaaaaaadjklkgp7:&#$$&=:=->>>>",
"++@@@$$$$&$&,18udzkkgdaaaaaaaaaaaaaaaaaaaaaaaaaaaaaaaaaaaadgkkkgp91>&$$$&=::><<<",
"++++@@@$$&-><79uddjjdddaaaaaaaaaaaaaaaaaaaaaaaaaaaaaaaaaaadggjhgpw5>::$$$$-><344",
"@@+@@@@#$&><48wuddddddaaaaaaaaaaaaaaaaaaaaaaaadaaaaaaaaaasadggdauq64>:&$#$&>3456",
"+++++++@$&>358wuaaddaaaaaaaaaadaaasaasasaaadaaaaaaaaadaaaaaadaayue853:&$@#:>3566",
"+@+@+++@#$:>36qeuuaaaaadaaadaaaasasasaasadaddaaaadaaaadasaaaaayre864>:$@@#&>>556",
"+++++++@@$&><368wuupaaaaddaadadaasasasasadaaaddaaaaddaadsaaayyreq63>:&#@@#&:>444",
"+@+++++@@@$&:>358wuuuaaaadaadaadssasadaaddadadadddddadadsaayyreq53>:$@@@@#%-;<<<",
"++@++@+++@@#$&>358wuuuadddadaaadassaaadaaaaaaaaaygygaasdsaayre663>-$@@@@@@$&-;<<",
"@@@@++@++@@@@&:<26qeuuaaaaaaaaadaaaaaaaaaaaaaaaadygyaaaaaayrqq64>-&@@@+++@#&--;>",
"@@@@@@@@@@@#$&&>>46qeuuuuauuuauuyyayyayararayayadyyyyyayyyreq66;>-&#$@@@@@%&-:;<",
"@$$@@@@@@#$&&--:>>35qwuuuuuuuuuuyyrrrrrrrrrrryrrrrrryyyryrw96<;;----$$#@@@&-;<<<",
"&$$$$@@@@$&:>>:-&&>34qqeuuqeququeeeeereeeeeeereereeeeeerew853;;=-->>:&$@@$$:;334",
":&&&$@@@#&>>3<>-&&=>35qqqqqq88qqqqqqqqqqqqqqqqqqqqqqqqwqqq53>&*=-><3<:&#@#&,3445",
"::&:$@@@$&>343>-$$$->466666666666666666666666666q4qq6666654<-%#%-<44<,&$@$&>3666",
"::&&$#@@$&>143>:=$&=>>34443443443444444234333434;444244433>>=&$&:<443-&#@#-,466q",
":::-$#@@$&>>333>>::-:>>>>>>>>::>>>>>>>>>>>>>>>>>;;;;>:>>>>:::=::<<33<-%#@$-<56qq",
">:-&$$@@@$:>33>3>>>>:==&&&&&&:&&&&&&&&&&&&&&&&&&====&&&&&&::>>>><<<<<-%#@$-<468q",
";---$#@@@$$:>>>3333>:$$#####@#$$#$@##$@$#$###$#####%#####$$:><3433<>-%#@@$-,4668",
"---&$$@@@#$*:>>4443>:$#@@@@@#@@@@@@#@@#@@@#@@@#@#@@#@@@@@#$=>3444<<--%##@$->3466",
"&&&$$@@@@@$::>33444>:&######$$#$$##$##$#$##$########$$##$$&><4444<>-%%OO@@%:<344",
"&$$$#@@@@#$&:>>3333>>:--&:&:&:&:&:&:::&:&:&----=--&:&:&:&->><343<<>-%%OOO@#%-<<<",
"$$#@@@@@@#$&:>>>3>33>>>>>>>>>>>>>>>:>>>>>>>>;3;;>>>>>>>>>><<<<3<<,;-&##OXO@#%&-&",
"@@@@@@@+@$$:::::>>>33334334343444444444444444344333333444433>>>>;:--=%OXXXO@###%",
"@@@++++@@#$&*::=-;>>34566666665556555555555555556666665565433>>:----%##OXXXO@@@@",
"@++++++@@@$$*==--->>3455646446555555555556555555466464665443>>:=--==%#OOXXO@@@@@",
"ooo++++++@@##$$*-->>>34444444343444444444444444443444444443<>:::===*###OO@@@@@@#",
"ooooooo++OOO@@#*=::><<<<<333<3<333>3<3<3<<3<<3<3<33<3<3<<3>>>>=:**O##O##########",
"o+oo+++++X...O@*&-:>>>>>;;>>>>>>>>>>;<>;<,<>>>>>>>>;>>>>>>>:>>:**#OOOO#%%--%-&&&",
"@@@@@#@@OX.  XO#*--:>;:;-::;:::>::>--;;-;-:;>---:-;;>--:>;::=:=*#OXXOO%%----;-;;",
":&&&$$$$@OX. .O@$==--=---::=------------------;-----------:=::*$#OXXX#%-><<<<1<<",
"<<<,,,:&*OO  XXX****--------:--------------,----------,-----%%%OOO..XO=;;4445566",
"8867543<;**XX XXX*O*=---------------;------------;;-------==%%#OOX  X#=<36qqqqwq",
"uui8q853;;*XX XXXXO**=-;:-:--:-------------------------;--=%#OOOX  .X#-<46qeeryy",
"pauuue85;;**XX XXXX*%===-----;----------------------------%%#OOO.  .O#;36qeryaaa",
"daaaueq64;=OXXXXXXO*O***-============%==-===========-%%-=%%#OOX.    O*;36qrryass",
"ddauuew64;=*XX   XOOO***%%**%#%%*=**%%%*%%#*%%#*%#%*%%%%%%%#OoX.X   O*;36qeyaass",
"daaaurq64;=XXX XXXOOO*O*#O#O###O#O#O@#O#O#O*#O##O#####O##O#@OOX...XXO*;36qeryaas",
"adauurq64;=*XXXXXXOOOOOOOOOOXOOOOOOOOOOOOOOOOOOOOOOOOOOOOOOOOOOo..XXO*;36qrraass",
"dddauw864>*@XXXX+O@OOXXXXXXXXXXXXXXXXXXXXXXXXXXXOOXXXXXXXXOO@O@oXXXXO*;36qeraasd",
"dddauuq63>*#XXXO@@@OOOXXXXXXXXXXX..XXXX..XX.XX.XOXXXXX.XXXXO@@@@XXXX**;36qryafgg",
"kdddauw63;*OOXOO###@OOoXXXXXXXX XXXX.XXXXXXX.XXXXXXXXXXXXXOO@##@OOXXO*;36erafghj",
"zlldsuw63;*#OXOO#$#%@@OoXXXXXXXXoXoOXXXXXXXXXXXoXXXXXoXXoOO#@$%##OXO**;36erdhjll",
"xzlddaq63;*XXXO*%&&%#@++oo++O+O++++O++++oO+O+@oooooooOooOO@##&&%#OOO**;36eygjlzx",
"cxzkdau73;**OOX*%&&%$@@o+@+@OOO+++@+++@++++++++@+O@+@+@+oo@#&&-&*#OOO*;36eagkzxc",
"vczkhat83;*OOO**&&-&#@@+++++++@++@@+@++@@+@++@@+@+@o++++@@@$&&-&#OOOO*;36eygkzcc",
"vcxlhp083;*OXOO*---&#@@@+@@+@@+@+@+@+@+@+@+@@++++@+@@+@+o@@$&--&*OOO**;;qeaglxcv"
};
